<?xml version="1.0" standalone="no"?><!DOCTYPE svg PUBLIC "-//W3C//DTD SVG 1.1//EN" "http://www.w3.org/Graphics/SVG/1.1/DTD/svg11.dtd"><svg t="1730432490406" class="icon" viewBox="0 0 1024 1024" version="1.1" xmlns="http://www.w3.org/2000/svg" p-id="3635" xmlns:xlink="http://www.w3.org/1999/xlink" width="200" height="200"><path d="M979.3 555.5c0 242.3-207 438.6-462.3 438.6S54.7 797.8 54.7 555.5c0-75.5 20.1-146.4 55.5-208.5 58.1-101.8 157.2-179.2 276.4-212.5C428 123 471.7 116.8 517 116.8c42.1 0 82.8 5.4 121.6 15.3 120.8 31.2 222 107.7 281.8 209.1 37.5 63.4 58.9 136.6 58.9 214.3z" fill="#B7A495" p-id="3636"></path><path d="M920.4 341.3c-26.2-44.4-60.4-84-100.6-117.2 14.4 17.5 27.4 36 38.9 55.5 37.5 63.3 58.9 136.5 58.9 214.2 0 242.3-207 438.6-462.3 438.6-115.9 0-221.8-40.6-302.9-107.4C237 927.9 368.8 994.2 517 994.2c255.3 0 462.3-196.3 462.3-438.6 0-77.8-21.4-151-58.9-214.3z" fill="#A08A7C" p-id="3637"></path><path d="M116.1 616.9c0-75.5 20.1-146.4 55.5-208.5 58-101.7 157.1-179.2 276.3-212.4 41.4-11.5 85.1-17.7 130.4-17.7 42.1 0 82.8 5.4 121.6 15.3 67.9 17.6 129.7 49.4 181.4 92-60.5-73.5-145.2-128.2-242.8-153.4-38.8-9.9-79.5-15.3-121.6-15.3-45.3 0-89.1 6.2-130.4 17.7-119.2 33.2-218.3 110.7-276.4 212.5-35.4 62-55.5 133-55.5 208.5 0 132.2 61.7 250.7 159.2 331.1-61.1-74.5-97.7-168-97.7-269.8z" fill="#DDC4B3" p-id="3638"></path><path d="M517 1024c-271.4 0-492.1-210.2-492.1-468.5 0-78 20.5-155.2 59.4-223.3 62.2-109.1 169.5-191.6 294.3-226.4 86-24 179.9-25 267.4-2.5C772.4 136 881.8 217.2 946.1 326.1c41.2 69.6 63 149 63 229.4 0 258.3-220.8 468.5-492.1 468.5z m0-877.3c-41.7 0-82.9 5.6-122.4 16.6-109.8 30.6-204 102.9-258.5 198.5-33.8 59.2-51.6 126.1-51.6 193.7 0 225.4 194 408.8 432.5 408.8S949.4 781 949.4 555.5c0-69.8-18.9-138.6-54.7-199.1C838.4 261 742.3 189.8 631.1 161c-37.2-9.4-75.6-14.3-114.1-14.3z" fill="#383F51" p-id="3639"></path><path d="M386.5 134.6c-119.2 33.2-218.3 110.7-276.4 212.5-40-32.8-65.4-82.6-65.4-138.3 0-98.8 80.1-179 179-179 72.4 0 134.7 43 162.8 104.8zM979.3 208.8c0 52.6-22.7 99.9-58.9 132.5-59.8-101.4-161.1-177.9-281.8-209.1C667.2 71.7 729 29.8 800.4 29.8c98.7 0 178.9 80.2 178.9 179z" fill="#EAD2C3" p-id="3640"></path><path d="M110.2 376.9c-6.8 0-13.5-2.4-18.9-6.8C42.8 330.3 15 271.5 15 208.8 14.9 93.7 108.6 0 223.7 0c81.6 0 156.2 48 190 122.3 3.6 7.9 3.6 17.1-0.1 25-3.7 7.9-10.6 13.8-19 16.1-109.8 30.6-204 102.9-258.5 198.5-4.4 7.6-11.8 13-20.5 14.6-1.8 0.2-3.6 0.4-5.4 0.4zM223.7 59.7c-82.2 0-149.1 66.9-149.1 149.1 0 33.1 10.9 64.7 30.5 90.4 56.8-82.3 140.3-146.4 236.7-181.5-27.9-36-71.4-58-118.1-58z" fill="#383F51" p-id="3641"></path><path d="M352.9 377.8m-39.8 0a39.8 39.8 0 1 0 79.6 0 39.8 39.8 0 1 0-79.6 0Z" fill="#383F51" p-id="3642"></path><path d="M661.1 377.8m-39.8 0a39.8 39.8 0 1 0 79.6 0 39.8 39.8 0 1 0-79.6 0Z" fill="#383F51" p-id="3643"></path><path d="M248.5 686a268.4 179 0 1 0 536.8 0 268.4 179 0 1 0-536.8 0Z" fill="#C99561" p-id="3644"></path><path d="M516.9 884.8c-159 0-288.3-89.2-288.3-198.8S358 487.1 516.9 487.1 805.3 576.3 805.3 686 675.9 884.8 516.9 884.8z m0-357.9c-137 0-248.5 71.4-248.5 159.1s111.5 159 248.5 159 248.6-71.3 248.6-159S654 526.9 516.9 526.9z" fill="#383F51" p-id="3645"></path><path d="M516.9 715.8c-49.3 0-89.5-40.1-89.5-89.5s40.1-89.5 89.5-89.5c49.3 0 89.5 40.1 89.5 89.5s-40.1 89.5-89.5 89.5z m0-139.2c-27.4 0-49.7 22.3-49.7 49.7s22.3 49.7 49.7 49.7c27.4 0 49.7-22.3 49.7-49.7s-22.3-49.7-49.7-49.7z" fill="#383F51" p-id="3646"></path><path d="M920.4 371.1c-1.5 0-3-0.1-4.5-0.3-8.8-1.4-16.6-6.6-21.2-14.3-56.3-95.4-152.4-166.6-263.6-195.4-8.6-2.2-15.8-8.2-19.5-16.2-3.8-8-3.8-17.4 0-25.4C645.9 46.9 720 0 800.3 0c115.1 0 208.8 93.7 208.8 208.8 0 59-25 115.3-68.7 154.7-5.5 4.9-12.7 7.6-20 7.6zM684.5 114.9c96.9 33.5 181.3 96 239.5 177.2 16.5-24.4 25.5-53.4 25.5-83.4 0-82.2-66.9-149.1-149.1-149.1-45.4 0.1-88 21-115.9 55.3z" fill="#383F51" p-id="3647"></path></svg>