<?xml version="1.0" standalone="no"?><!DOCTYPE svg PUBLIC "-//W3C//DTD SVG 1.1//EN" "http://www.w3.org/Graphics/SVG/1.1/DTD/svg11.dtd"><svg t="1730432450224" class="icon" viewBox="0 0 1024 1024" version="1.1" xmlns="http://www.w3.org/2000/svg" p-id="2497" xmlns:xlink="http://www.w3.org/1999/xlink" width="200" height="200"><path d="M574.2 286.2L712 245.7c29.5-9.9 45.5-42.1 35.6-71.6s-42.1-45.5-71.6-35.6l-107.4 36.1V86.1c0-31.1-25.4-56.5-56.5-56.5S455.5 55 455.5 86.1v88.6l-107.4-36.1c-29.5-9.9-61.7 6.1-71.6 35.6-9.9 29.5 6.1 61.7 35.6 71.6l137.8 40.5" fill="#EDAB5D" p-id="2498"></path><path d="M449.8 286.2h124.4L712 245.7c29.5-9.9 45.5-42.1 35.6-71.6-6-18-20.4-30.9-37.4-36 8.6 28.9-7.2 60-36.1 69.7l-136.7 58.1-125.5-17.6" fill="#DD9D57" p-id="2499"></path><path d="M512 637.5m-357 0a357 357 0 1 0 714 0 357 357 0 1 0-714 0Z" fill="#FFE98A" p-id="2500"></path><path d="M729.9 354.8c46.5 60.3 74.3 135.8 74.3 217.9 0 197.2-159.8 357-357 357-82.1 0-157.6-27.8-217.9-74.3C294.6 940 396.9 994.5 512 994.5c197.2 0 357-159.8 357-357 0-115.1-54.5-217.4-139.1-282.7z" fill="#EACB7D" p-id="2501"></path><path d="M215.8 698.3c0-197.2 159.8-357 357-357 83.1 0 159.5 28.5 220.1 76-65.4-83.3-166.9-136.9-281-136.9-197.2 0-357 159.8-357 357 0 114.1 53.6 215.6 136.9 281-47.5-60.6-76-137-76-220.1zM370 187.5l88 28.4c27.4 8.8 49.8-7.5 49.8-36.2v-61.5c0-29.8-7.5-68 19.7-78.8 0.3-0.1 31.2 14.8 31 14.6-12-17.3-33.3-27.7-56.6-23.6-27.4 4.8-46.5 30.2-46.5 58V174c0 0.3-0.3 0.5-0.6 0.4l-104.4-35.1c-27.4-9.2-58.6 2-71.2 27.9-8.6 17.6-7 36.9 1.6 52.4 0.2 0.3 0.6 0.3 0.8 0 17.4-28.8 54.3-43.1 88.4-32.1z" fill="#FFF6CF" p-id="2502"></path><path d="M512 1024c-213.1 0-386.5-173.4-386.5-386.5S298.9 250.9 512 250.9s386.5 173.4 386.5 386.5S725.1 1024 512 1024z m0-714c-180.6 0-327.5 146.9-327.5 327.5S331.4 964.9 512 964.9 839.5 818 839.5 637.5 692.6 310 512 310z" fill="#383F51" p-id="2503"></path><path d="M406 522.4m-32.7 0a32.7 32.7 0 1 0 65.4 0 32.7 32.7 0 1 0-65.4 0Z" fill="#383F51" p-id="2504"></path><path d="M618 522.4m-32.7 0a32.7 32.7 0 1 0 65.4 0 32.7 32.7 0 1 0-65.4 0Z" fill="#383F51" p-id="2505"></path><path d="M618 728.1c0 34.5-65.2 93.9-93.3 117.9-7.4 6.4-17.8 6.4-25.3 0-28.1-24-93.3-83.5-93.3-117.9 0-43.9 47.5-79.5 106-79.5S618 684.2 618 728.1z" fill="#F79B37" p-id="2506"></path><path d="M512 865.5c-7.9 0-15.8-2.7-22.2-8.2-44.9-38.4-98.5-92-98.5-129.2 0-52 54.2-94.3 120.7-94.3 66.6 0 120.8 42.3 120.8 94.3 0 37.2-53.6 90.8-98.5 129.2-6.5 5.5-14.4 8.2-22.3 8.2z m0-202.1c-50.3 0-91.2 29-91.2 64.7 0 19.1 34.6 60.9 88.2 106.7 1.9 1.6 4.2 1.6 6.1 0 53.6-45.8 88.2-87.6 88.2-106.7-0.1-35.7-41-64.7-91.3-64.7z" fill="#383F51" p-id="2507"></path><path d="M582.5 314.5l-16.7-56.7L703 217.5c6.6-2.3 11.9-7.1 15.1-13.5 3.2-6.5 3.7-13.8 1.5-20.6-2.3-6.8-7.1-12.3-13.6-15.5-6.5-3.2-13.8-3.7-20.6-1.5L578 202.5c-9 3-18.9 1.5-26.7-4-7.7-5.5-12.3-14.5-12.3-24V86.1c0-14.9-12.1-27-27-27s-27 12.1-27 27v88.6c0 9.5-4.6 18.4-12.3 24s-17.7 7-26.7 4l-107.4-36.1c-6.8-2.3-14.1-1.8-20.6 1.5-6.5 3.2-11.3 8.7-13.6 15.5-2.3 6.8-1.8 14.1 1.5 20.6 3.2 6.4 8.5 11.1 15.1 13.5L458.1 258l-16.7 56.7L303.7 274c-0.4-0.1-0.7-0.2-1.1-0.3-21.7-7.3-39.3-22.7-49.6-43.3s-11.9-44-4.6-65.7c7.3-21.7 22.7-39.3 43.3-49.6 20.6-10.2 44-11.9 65.7-4.6l68.4 23V86.1C425.9 38.6 464.5 0 512 0s86.1 38.6 86.1 86.1v47.5l68.4-23c21.7-7.3 45.1-5.7 65.7 4.6 20.6 10.2 36 27.9 43.3 49.6 7.3 21.7 5.7 45.1-4.6 65.7-10.2 20.6-27.9 36-49.6 43.3-0.4 0.1-0.7 0.2-1.1 0.3l-137.7 40.4z" fill="#383F51" p-id="2508"></path></svg>