<?xml version="1.0" standalone="no"?><!DOCTYPE svg PUBLIC "-//W3C//DTD SVG 1.1//EN" "http://www.w3.org/Graphics/SVG/1.1/DTD/svg11.dtd"><svg t="1730432444227" class="icon" viewBox="0 0 1024 1024" version="1.1" xmlns="http://www.w3.org/2000/svg" p-id="2109" xmlns:xlink="http://www.w3.org/1999/xlink" width="200" height="200"><path d="M841.9 709.6c0 1.6 0 3.3-0.1 4.9-1.3 45.2-20.2 86.1-50.2 116-31 31.1-73.8 50.4-121 50.4H353.4c-92.6 0-168.6-74.3-171.2-166.4-0.1-1.6-0.1-3.3-0.1-4.9 0-11.8 1.2-23.2 3.5-34.4v-0.1c6.9-33.3 23.6-63.2 46.8-86.5 31.1-31.1 73.8-50.4 121-50.4h317.2c82.5 0 151.8 59 167.8 136.9 2.3 11.3 3.5 22.7 3.5 34.5z" fill="#FFF7D2" p-id="2110"></path><path d="M226 764.3c-0.1-1.6-0.1-3.3-0.1-4.9 0-11.8 1.2-23.2 3.5-34.4v-0.1c6.9-33.3 23.6-63.2 46.8-86.5 31.1-31.1 73.8-50.4 121-50.4h317.2c39.1 0 75.2 13.4 104.1 35.7-29.7-50.9-84.9-85.4-147.9-85.4H353.4c-47.1 0-89.9 19.3-121 50.4-23.2 23.2-40 53.1-46.8 86.5v0.1c-2.4 11.1-3.5 22.6-3.5 34.4 0 1.6 0 3.3 0.1 4.9 1.5 53.1 27.5 100.2 67 130.7-14-24-22.4-51.6-23.2-81z" fill="#FFFBEB" p-id="2111"></path><path d="M838.4 675.2c-10.3-50-42.6-92.2-86.2-116 8 14.6 14.1 30.5 17.5 47.3 2.4 11.1 3.5 22.6 3.5 34.4 0 1.6 0 3.3-0.1 4.9-1.3 45.2-20.2 86.1-50.2 116-31 31.1-73.8 50.4-121 50.4H284.7c-29.5 0-57.3-7.6-81.6-20.9 29.1 53.2 85.6 89.6 150.3 89.6h317.2c47.1 0 90-19.3 121-50.4 30-29.9 49-70.8 50.2-116 0.1-1.6 0.1-3.3 0.1-4.9 0-11.8-1.2-23.2-3.5-34.4z" fill="#F2E7B6" p-id="2112"></path><path d="M838.4 675.2c-16-77.9-85.3-136.9-167.8-136.9H353.4c-47.1 0-89.9 19.3-121 50.4-23.2 23.2-40 53.1-46.8 86.5l39.7-456.3c0.2-2.7 0.5-5.4 1-8 10.1-57.9 78.6-84.4 127.7-52.1 33.3 22.1 88.7 49.7 156.9 49.7 70.3 0 127.8-29.4 161.3-51.6 43.2-28.7 103.9-10.4 121.3 38.5 2.7 7.5 4.4 15.3 5.1 23.6l39.8 456.2z" fill="#FFF0B3" p-id="2113"></path><path d="M224.2 297.5c0.2-2.7 0.5-5.4 1-8 10.1-57.9 78.6-84.4 127.7-52.1 33.3 22.1 88.7 49.7 156.9 49.7 70.3 0 127.8-29.4 161.3-51.6 43.2-28.7 103.9-10.4 121.3 38.5 2.7 7.5 4.4 15.3 5.1 23.6l30.7 353.7c3.8 9.4 6.8 19.2 8.9 29.4l-39.6-456.4c-0.7-8.2-2.5-16.1-5.1-23.6-17.4-48.8-78.1-67.2-121.3-38.5-33.5 22.3-91.1 51.6-161.3 51.6-68.2 0-123.6-27.6-156.9-49.7-49.1-32.4-117.6-5.8-127.7 52.1-0.4 2.7-0.7 5.4-1 8l-39.7 456.3c2.1-10.1 5.1-19.8 8.9-29.1l30.8-353.9z" fill="#FFFAE6" p-id="2114"></path><path d="M838.4 675.2c-3.6-17.8-10.1-34.6-18.7-49.9 5.3 3 10.3 6.2 15.2 9.9l3.5 40z" fill="#F2DF8F" p-id="2115"></path><path d="M838.4 675.2c-3.6-17.8-10.1-34.6-18.7-49.9 5.3 3 10.3 6.2 15.2 9.9l3.5 40zM739 555.2c-0.9-1.2-1.7-2.5-2.6-3.6h0.1c0.8 1.2 1.7 2.3 2.5 3.6zM760.4 563.9v0.1c-1.5-1-3-1.9-4.6-2.9 1.5 0.9 3.1 1.8 4.6 2.8z" fill="#FFF7D2" p-id="2116"></path><path d="M838.4 675.2c-0.6-2.9-1.3-5.8-2-8.7-1-3.5-1.9-7.1-3.1-10.5-0.5-1.7-1.2-3.5-1.8-5.3-1.2-3.2-2.5-6.2-3.7-9.2-1.2-2.7-2.4-5.4-3.6-7.9-1.4-2.7-2.7-5.2-4.2-7.8-1.4-2.5-2.9-5-4.4-7.4-1.5-2.5-3.1-4.8-4.6-7.1-1.1-1.3-2-2.7-3-4-1.1-1.4-2.1-2.8-3.2-4.2-3.3-4.2-6.9-8.2-10.6-12.1-1.9-2-4-4.1-6.1-6-2.1-2-4.3-4-6.4-5.8-2.1-1.9-4.4-3.8-6.7-5.5-4.6-3.5-9.4-6.9-14.4-9.9-1.5-1-3-1.9-4.6-2.9 1.5 0.9 3.1 1.8 4.6 2.8l-35-403.7c-0.5-5.8-1.5-11.4-3.1-16.8 31 1.6 60.1 20.5 71.3 51.8 2.7 7.5 4.4 15.3 5.1 23.6l39.5 456.6z" fill="#E0D190" p-id="2117"></path><path d="M760.4 563.9v0.1c-1.5-1-3-1.9-4.6-2.9 1.5 0.9 3.1 1.8 4.6 2.8z" fill="#F2DF8F" p-id="2118"></path><path d="M207.5 322.6l-95.2 0.3c-45.4 0.1-82.3-36.6-82.3-82 0-45.8 37.3-82.8 83.1-82.2l142.7 1.8" fill="#F2EDD1" p-id="2119"></path><path d="M207.5 322.6l-95.2 0.3c-45.4 0.1-82.3-36.6-82.3-82 0-45.8 37.3-82.8 83.1-82.2l142.7 1.8" fill="#F2EDD1" p-id="2120"></path><path d="M44.4 284.3c0-45.8 37.3-82.7 83.1-82.2l115.3 1.4 12.8-43.1-142.6-1.7c-45.8-0.6-83.2 36.4-83.1 82.2 0 17.4 5.5 33.4 14.7 46.7-0.1-1.1-0.2-2.2-0.2-3.3z" fill="#FFFDF3" p-id="2121"></path><path d="M112 352.8c-29.8 0-57.9-11.6-79.1-32.7C11.7 299 0 270.9 0 240.9c0-30.2 11.8-58.5 33.3-79.8 21.5-21.2 49.9-32.8 80.1-32.4l142.7 1.8-0.7 59.8-142.7-1.8c-14-0.3-27.3 5.2-37.3 15.1-10 9.9-15.5 23.1-15.5 37.2 0 14 5.5 27.1 15.4 36.9 9.9 9.9 23.4 15.1 37 15.2l95.2-0.3 0.2 59.8-95.2 0.3c-0.3 0.1-0.4 0.1-0.5 0.1z" fill="#383F51" p-id="2122"></path><path d="M112 352.8c-29.8 0-57.9-11.6-79.1-32.7C11.7 299 0 270.9 0 240.9c0-30.2 11.8-58.5 33.3-79.8 21.5-21.2 49.9-32.8 80.1-32.4l142.7 1.8-0.7 59.8-142.7-1.8c-14-0.3-27.3 5.2-37.3 15.1-10 9.9-15.5 23.1-15.5 37.2 0 14 5.5 27.1 15.4 36.9 9.9 9.9 23.4 15.1 37 15.2l95.2-0.3 0.2 59.8-95.2 0.3c-0.3 0.1-0.4 0.1-0.5 0.1z" fill="#383F51" p-id="2123"></path><path d="M768.3 160.5l142.7-1.8c45.8-0.6 83.2 36.4 83.1 82.2 0 45.4-36.9 82.1-82.3 82l-95.2-0.3" fill="#F2EDD1" p-id="2124"></path><path d="M927.8 181.2l-49.8 0.6c28.6 3.9 50.7 28.4 50.6 58.1 0 31.3-24.6 56.8-55.5 58.5l55.2 0.2c32.4 0.1 58.8-26.2 58.8-58.6 0.1-32.8-26.6-59.2-59.3-58.8z" fill="#D8CFAF" opacity=".56" p-id="2125"></path><path d="M912 352.8h-0.3l-95.2-0.3 0.2-59.8 95.2 0.3h0.2c13.9 0 27-5.4 36.8-15.2 9.9-9.9 15.3-23 15.4-36.9 0-14.1-5.5-27.3-15.5-37.2-10-9.9-23.3-15.5-37.3-15.1l-142.7 1.8-0.7-59.8 142.7-1.8c30-0.4 58.7 11.1 80.1 32.4s33.3 49.6 33.3 79.8c0 30-11.7 58.1-33 79.2-21.3 21-49.4 32.6-79.2 32.6zM211.9 718.2l-59.7-4.6 3.6-41 29.2 2.6 30.5-0.1-0.1 2.7z" fill="#383F51" p-id="2126"></path><path d="M670.6 910.8H353.4c-107.7 0-197.8-87.4-201.1-194.9-0.1-2.1-0.1-4.2-0.1-6.3 0-12.7 1.2-25.2 3.5-37.4v-0.1l0.6-3.1c7.9-38.4 26.9-73.5 55-101.6 38.1-38.1 88.6-59.1 142.1-59.1h317.2c95.1 0 178 67.6 197.1 160.8 2.7 12.9 4.1 26.6 4.1 40.4 0 2 0 4.2-0.1 6.3-1.6 51.3-22.5 99.5-59 135.9-38 38.1-88.5 59.1-142.1 59.1zM215.4 679l-0.5 2.4c-1.9 9.1-2.9 18.5-2.9 28.2v2.9l0.1 1.2c2.1 75.7 65.5 137.3 141.3 137.3h317.2c37.6 0 73.1-14.8 99.8-41.6 25.8-25.7 40.5-59.7 41.5-95.8l0.1-1.1c0.1-1 0-2 0-2.9 0-9.7-1-19.1-2.9-28.2-13.5-65.7-71.7-113.2-138.5-113.2H353.4c-37.5 0-73 14.8-99.8 41.6-19.3 19.2-32.4 43.1-38.2 69.2z" fill="#383F51" p-id="2127"></path><path d="M809.1 681.2c-13.4-65.5-71.7-113-138.5-113H353.4c-37.5 0-73 14.8-99.8 41.6-19.8 19.8-33.1 44.4-38.7 71.3l-59.1-8.6 39.7-456.3c0.3-3.3 0.7-6.7 1.2-10.2 6.3-36.5 30.5-66.9 64.8-81.7 35.8-15.5 76.5-12 108.9 9.4 30.9 20.4 80.2 44.8 140.5 44.8 61.7 0 112.8-25.4 144.8-46.6 28.9-19.2 64.6-23.9 97.8-12.8 32.2 10.7 57.1 34.8 68.2 66.2 3.5 9.8 5.8 20.2 6.7 30.9l39.7 456.5-59 8.5zM353.4 508.4h317.2c47.6 0 92.2 17 127.2 45.6l-28.9-332.6c-0.5-5.6-1.7-10.9-3.5-16.1-4.9-13.9-16.1-24.6-30.7-29.5-15.6-5.2-32.3-3.1-45.8 5.9-38.9 25.9-101.3 56.7-177.9 56.7-75.1 0-135.8-29.7-173.5-54.7-15.4-10.2-35-11.8-52.2-4.4-15.9 6.9-26.7 20.2-29.5 36.7-0.2 1.5-0.5 3.4-0.6 5.3l-29 332.8c35.9-29.6 80.4-45.7 127.2-45.7z" fill="#383F51" p-id="2128"></path><path d="M812.1 718.2l-3.5-40.4 59.6-5.2 3.5 41z" fill="#383F51" p-id="2129"></path><path d="M416.8 379.7m-31.7 0a31.7 31.7 0 1 0 63.4 0 31.7 31.7 0 1 0-63.4 0Z" fill="#383F51" p-id="2130"></path><path d="M594.5 379.7m-31.7 0a31.7 31.7 0 1 0 63.4 0 31.7 31.7 0 1 0-63.4 0Z" fill="#383F51" p-id="2131"></path></svg>