<?xml version="1.0" standalone="no"?><!DOCTYPE svg PUBLIC "-//W3C//DTD SVG 1.1//EN" "http://www.w3.org/Graphics/SVG/1.1/DTD/svg11.dtd"><svg t="1730432492796" class="icon" viewBox="0 0 1024 1024" version="1.1" xmlns="http://www.w3.org/2000/svg" p-id="3822" xmlns:xlink="http://www.w3.org/1999/xlink" width="200" height="200"><path d="M212.4 604.9h-52.8c-52.9 0-96.1-43.3-96.1-96.1v-96.1h198.6" fill="#D69A6E" p-id="3823"></path><path d="M268.9 416.3H70.3v56.1h181.4z" fill="#EFC6AB" p-id="3824"></path><path d="M798.6 601.7h76.9c52.9 0 96.1-43.3 96.1-96.1v-96.1H773" fill="#D69A6E" p-id="3825"></path><path d="M887.5 536.8h-76.9l-17-127.3H773l25.6 192.2h76.9c52.9 0 96.1-43.3 96.1-96.1V487c-16.4 29.6-48 49.8-84.1 49.8z" fill="#CC9376" p-id="3826"></path><path d="M223.7 889.5V579.3c0-162.1 132.6-294.7 294.7-294.7s294.7 132.6 294.7 294.7v310.2c0 55.1-44.7 99.8-99.8 99.8H323.5c-55.1 0.1-99.8-44.6-99.8-99.8z" fill="#F4BA92" p-id="3827"></path><path d="M686.7 337.8c33.5 47.8 53.2 105.9 53.2 168.3v310.2c0 55.1-44.7 99.8-99.8 99.8H250.3c-8.2 0-16.1-1.1-23.7-3 10.7 43.7 49.9 76.1 96.9 76.1h389.8c55.1 0 99.8-44.7 99.8-99.8V579.3c0-99.7-50.1-188.1-126.4-241.5z" fill="#D69F80" p-id="3828"></path><path d="M288.5 929.2v-301c0-157.3 128.9-286 286.4-286 57.3 0 110.8 17.1 155.7 46.3-52.6-63.4-132-104-220.5-104-157.5 0-286.4 128.7-286.4 286v301c0 44.7 30.4 82.3 71.7 93.4-4.4-11-6.9-23.1-6.9-35.7z" fill="#FFD8BD" p-id="3829"></path><path d="M713.3 1020.8H323.5c-72.4 0-131.3-58.9-131.3-131.3V579.3c0-179.9 146.3-326.2 326.2-326.2s326.2 146.3 326.2 326.2v310.2c0 72.4-58.9 131.3-131.3 131.3zM518.4 316c-145.2 0-263.3 118.1-263.3 263.3v310.2c0 37.7 30.7 68.4 68.4 68.4h389.8c37.7 0 68.4-30.7 68.4-68.4V579.3c0-145.2-118.1-263.3-263.3-263.3z" fill="#383F51" p-id="3830"></path><path d="M212.4 636.4h-52.8C89.3 636.4 32 579.1 32 508.8v-96.1c0-17.4 14.1-31.4 31.4-31.4H262v62.9H94.9v64.7c0 35.7 29 64.7 64.7 64.7h52.8v62.8zM877.2 636.4h-76.9v-62.9h76.9c35.7 0 64.7-29 64.7-64.7v-64.7H774.7v-62.9h198.6c17.4 0 31.4 14.1 31.4 31.4v96.1c0.1 70.4-57.1 127.7-127.5 127.7zM742.7 316H281.3c-106.6 0-205.9-62.3-253-158.6C9.5 118.9 0 77.6 0 34.6 0 17.3 14.1 3.2 31.4 3.2s31.4 14.1 31.4 31.4c0 33.3 7.4 65.3 22 95.1C121.4 204.6 198.5 253 281.3 253h461.3c82.8 0 159.9-48.4 196.5-123.3 14.6-29.8 22-61.8 22-95.1 0-17.4 14.1-31.4 31.4-31.4 17.4 0 31.4 14.1 31.4 31.4 0 42.9-9.5 84.2-28.3 122.7-47 96.4-146.3 158.7-252.9 158.7z" fill="#383F51" p-id="3831"></path><path d="M236.5 290.4c-17.4 0-31.4-14.1-31.4-31.4V92.3c0-17.4 14.1-31.4 31.4-31.4s31.4 14.1 31.4 31.4v166.6c0 17.4-14.1 31.5-31.4 31.5zM403.1 303.2c-17.4 0-31.4-14.1-31.4-31.4V156.4c0-17.4 14.1-31.4 31.4-31.4s31.4 14.1 31.4 31.4v115.3c0 17.4-14.1 31.5-31.4 31.5zM826 290.4c-17.4 0-31.4-14.1-31.4-31.4V92.3c0-17.4 14.1-31.4 31.4-31.4 17.4 0 31.4 14.1 31.4 31.4v166.6c0 17.4-14.1 31.5-31.4 31.5zM659.4 303.2c-17.4 0-31.4-14.1-31.4-31.4V156.4c0-17.4 14.1-31.4 31.4-31.4s31.4 14.1 31.4 31.4v115.3c0 17.4-14.1 31.5-31.4 31.5z" fill="#383F51" p-id="3832"></path><path d="M379.9 526.1m-43.2 0a43.2 43.2 0 1 0 86.4 0 43.2 43.2 0 1 0-86.4 0Z" fill="#383F51" p-id="3833"></path><path d="M666.7 526.1m-43.2 0a43.2 43.2 0 1 0 86.4 0 43.2 43.2 0 1 0-86.4 0Z" fill="#383F51" p-id="3834"></path><path d="M518.4 741m-44.5 0a44.5 44.5 0 1 0 89 0 44.5 44.5 0 1 0-89 0Z" fill="#383F51" p-id="3835"></path><path d="M603.2 847.2c-55.4 0-100.5-45.1-100.5-100.5 0-8.7 7-15.7 15.7-15.7s15.7 7 15.7 15.7c0 38.1 31 69.1 69.1 69.1 38.1 0 69.1-31 69.1-69.1 0-8.7 7-15.7 15.7-15.7s15.7 7 15.7 15.7c0 55.4-45.1 100.5-100.5 100.5z" fill="#383F51" p-id="3836"></path><path d="M433.6 847.2c-55.4 0-100.5-45.1-100.5-100.5 0-8.7 7-15.7 15.7-15.7s15.7 7 15.7 15.7c0 38.1 31 69.1 69.1 69.1 38.1 0 69.1-31 69.1-69.1 0-8.7 7-15.7 15.7-15.7s15.7 7 15.7 15.7c0 55.4-45.1 100.5-100.5 100.5z" fill="#383F51" p-id="3837"></path></svg>