<?xml version="1.0" standalone="no"?><!DOCTYPE svg PUBLIC "-//W3C//DTD SVG 1.1//EN" "http://www.w3.org/Graphics/SVG/1.1/DTD/svg11.dtd"><svg t="1730432459874" class="icon" viewBox="0 0 1024 1024" version="1.1" xmlns="http://www.w3.org/2000/svg" p-id="3064" xmlns:xlink="http://www.w3.org/1999/xlink" width="200" height="200"><path d="M616.4 725.4h47.2c74.4 0 135.3-60.9 135.3-135.3V383.4c0-157.8-129.1-287-287-287-157.8 0-287 129.1-287 287v206.7c0 74.4 60.9 135.3 135.3 135.3h47.2" fill="#D3EDF4" p-id="3065"></path><path d="M401.8 693.3l10.9 162.8 108.5 86.8 97.7-76L608 715s-162.7-65.1-206.2-21.7z" fill="#D3EDF4" p-id="3066"></path><path d="M994.9 390.4v67.8c0 33.5-27.2 60.7-60.7 60.7H798.9V383.4c0-76.2-30.1-145.6-79-197.1h70.8c112.7 0 204.2 91.4 204.2 204.1z" fill="#DCF3F9" p-id="3067"></path><path d="M903.8 238.8c17.3 28.5 27.5 61.9 27.5 97.7v62.7c0 31-25.2 56.1-56.1 56.1h-61.6v63.6h125.2c30.9 0 56.1-25.1 56.1-56.1v-62.7c0-68.5-36.5-128.2-91.1-161.3z" fill="#B9D9EA" p-id="3068"></path><path d="M304 186.3c-48.8 51.4-78.9 120.9-78.9 197.1v135.5H89.7c-33.5 0-60.7-27.1-60.7-60.7v-67.8c0-112.8 91.4-204.1 204.1-204.1H304z" fill="#DCF3F9" p-id="3069"></path><path d="M89.1 518.4v-67.8c0-100.8 73.2-184.4 169.3-200.9 12.3-23.1 27.6-44.4 45.5-63.3h-70.8C120.3 186.4 29 277.8 29 390.5v67.8c0 33.3 26.8 60.3 60.1 60.6 0.1-0.2 0-0.4 0-0.5z" fill="#F0FCFF" p-id="3070"></path><path d="M284.3 649.4V442.7c0-157.8 129.1-287 287-287 63.9 0 123 21.2 170.9 56.8-52.5-70.3-136.3-116-230.2-116-157.8 0-287 129.1-287 287v206.7c0 52.4 30.3 98 74.2 120.5-9.5-18.6-14.9-39.3-14.9-61.3z" fill="#E6FAFF" p-id="3071"></path><path d="M616.4 725.4h47.2c74.4 0 135.3-60.9 135.3-135.3V383.4c0-97.1-48.9-183.2-123.2-235.2 32.5 46.5 51.7 103 51.7 163.7v206.7c0 74.4-60.9 135.3-135.3 135.3h15.3" fill="#ABCDDD" p-id="3072"></path><path d="M416.2 309.8m-27.7 0a27.7 27.7 0 1 0 55.4 0 27.7 27.7 0 1 0-55.4 0Z" fill="#383F51" p-id="3073"></path><path d="M596.5 309.8m-27.7 0a27.7 27.7 0 1 0 55.4 0 27.7 27.7 0 1 0-55.4 0Z" fill="#383F51" p-id="3074"></path><path d="M433.7 635.5h52.2M590.3 780.2H525M616.4 849.1v-26c0 57.4-47 104.4-104.4 104.4-57.4 0-104.4-47-104.4-104.4v26" fill="#ABCDDD" p-id="3075"></path><path d="M485.9 664.6h-52.2c-16.1 0-29.1-13-29.1-29.1s13-29.1 29.1-29.1h52.2c16.1 0 29.1 13 29.1 29.1s-13.1 29.1-29.1 29.1zM590.3 809.2H525c-16.1 0-29.1-13-29.1-29.1s13-29.1 29.1-29.1h65.3c16.1 0 29.1 13 29.1 29.1s-13.1 29.1-29.1 29.1z" fill="#383F51" p-id="3076"></path><path d="M512 956.6c-73.6 0-133.5-59.9-133.5-133.5V519.7c0-16.1 13-29.1 29.1-29.1s29.1 13 29.1 29.1v303.4c0 41.6 33.8 75.4 75.4 75.4s75.4-33.8 75.4-75.4V519.7c0-16.1 13-29.1 29.1-29.1s29.1 13 29.1 29.1v303.4c-0.3 73.6-60.1 133.5-133.7 133.5zM934.3 548H798.9c-16.1 0-29.1-13-29.1-29.1V383.4c0-66.1-25.2-128.9-71-177-8-8.4-10.2-20.8-5.7-31.5 4.6-10.7 15.1-17.6 26.7-17.6h70.8c128.6 0 233.3 104.6 233.3 233.2v67.8c0.1 49.4-40.2 89.7-89.6 89.7zM828 489.9h106.3c17.4 0 31.6-14.2 31.6-31.6v-67.8c0-96.5-78.6-175.1-175.2-175.1h-11.4c31.7 50 48.7 107.9 48.7 168v106.5z" fill="#383F51" p-id="3077"></path><path d="M719.9 215.4h-0.1c-16.1 0-29.1-13-29.1-29.1s13-29.1 29.1-29.1 29.1 13 29.1 29.1-12.9 29.1-29 29.1z" fill="#383F51" p-id="3078"></path><path d="M225.1 548H89.7C40.3 548 0 507.7 0 458.3v-67.8c0-128.6 104.6-233.2 233.2-233.2H304c11.6 0 22.1 6.9 26.7 17.6 4.6 10.7 2.4 23.1-5.6 31.5-45.7 48.2-70.9 111-70.9 177.1V519c-0.1 16-13.1 29-29.1 29z m8.1-332.6c-96.5 0-175.1 78.5-175.1 175.1v67.8c0 17.4 14.2 31.6 31.6 31.6H196V383.4c0-60.1 17-118 48.6-168h-11.4z" fill="#383F51" p-id="3079"></path><path d="M304.1 215.4h-0.1c-16.1 0-29.1-13-29.1-29.1s13-29.1 29.1-29.1 29.1 13 29.1 29.1-13 29.1-29 29.1z" fill="#383F51" p-id="3080"></path><path d="M663.6 754.5h-47.2c-16.1 0-29.1-13-29.1-29.1s13-29.1 29.1-29.1h47.2c58.6 0 106.3-47.7 106.3-106.3V383.4c0-142.2-115.7-257.9-257.9-257.9S254.1 241.2 254.1 383.4v206.7c0 58.6 47.7 106.3 106.3 106.3h47.2c16.1 0 29.1 13 29.1 29.1s-13 29.1-29.1 29.1h-47.2c-90.6 0-164.4-73.7-164.4-164.4V383.4c0-174.3 141.8-316 316-316s316 141.8 316 316v206.7c0 90.6-73.8 164.4-164.4 164.4z" fill="#383F51" p-id="3081"></path></svg>