<?xml version="1.0" standalone="no"?><!DOCTYPE svg PUBLIC "-//W3C//DTD SVG 1.1//EN" "http://www.w3.org/Graphics/SVG/1.1/DTD/svg11.dtd"><svg t="1730432501085" class="icon" viewBox="0 0 1024 1024" version="1.1" xmlns="http://www.w3.org/2000/svg" p-id="4387" xmlns:xlink="http://www.w3.org/1999/xlink" width="200" height="200"><path d="M512 556.604291m-437.595983 0a437.595983 437.595983 0 1 0 875.191966 0 437.595983 437.595983 0 1 0-875.191966 0Z" fill="#FFA878" p-id="4388"></path><path d="M790.097447 218.807391c62.299428 75.599306 99.699085 172.498417 99.699085 278.097448 0 241.697781-195.898202 437.595983-437.595983 437.595983-105.599031 0-202.498141-37.399657-278.097447-99.699085 80.299263 97.399106 201.798148 159.498536 337.896898 159.498536 241.697781 0 437.595983-195.898202 437.595983-437.595983 0-136.098751-62.09943-257.697634-159.498536-337.896899z" fill="#EA864E" p-id="4389"></path><path d="M696.198309 153.60799L840.396985 39.809035C870.596708 16.009253 914.996301 37.509056 914.996301 76.008702v328.496985l-106.599022-144.998669-112.19897-105.899028z" fill="#FFD67B" p-id="4390"></path><path d="M124.903553 611.703785c0-241.697781 195.898202-437.595983 437.595983-437.595983 103.49905 0 198.498178 35.99967 273.397491 95.999119C755.697763 170.007839 632.498894 105.908428 494.300162 105.908428c-241.697781 0-437.595983 195.898202-437.595983 437.595983 0 138.198731 64.099412 261.3976 164.198493 341.596864-59.999449-74.899312-95.999119-169.89844-95.999119-273.39749z" fill="#FFCEB6" p-id="4391"></path><path d="M512 1024c-257.697634 0-467.395709-209.698075-467.395709-467.395709S254.302366 89.30858 512 89.30858 979.395709 299.006655 979.395709 556.70429 769.697634 1024 512 1024z m0-875.191966c-224.897936 0-407.796257 182.99832-407.796257 407.796257s182.99832 407.796257 407.796257 407.796256 407.796257-182.99832 407.796257-407.796256S736.897936 148.808034 512 148.808034z" fill="#383F51" p-id="4392"></path><path d="M327.801691 153.60799L183.603015 39.809035C153.403292 15.909254 109.003699 37.409057 109.003699 75.908703v307.997173" fill="#FFD67B" p-id="4393"></path><path d="M157.403255 124.408258c0-38.499647 44.399592-59.999449 74.599315-36.199668l90.199172 71.199347 5.49995-5.799947L183.603015 39.809035C153.403292 15.909254 109.003699 37.409057 109.003699 75.908703v307.997173l48.499555-50.999532V124.408258z" fill="#FFEDCA" p-id="4394"></path><path d="M751.597801 111.208379L696.998302 154.307984l112.098971 105.899027 106.69902 144.89867V260.007013z" fill="#EDB872" p-id="4395"></path><path d="M109.003699 413.705602c-16.399849 0-29.799726-13.299878-29.799726-29.799726v-307.997173c0-29.299731 16.399849-55.499491 42.799607-68.199374 26.399758-12.799883 56.999477-9.399914 80.099265 8.69992l144.198676 113.798956c12.899882 10.199906 15.099861 28.899735 4.899955 41.799616-10.199906 12.899882-28.899735 15.099861-41.799616 4.899955L165.103184 63.108821c-7.199934-5.699948-14.399868-3.199971-17.199842-1.899983-2.799974 1.299988-9.199916 5.49995-9.199915 14.699865v307.997173c0 16.499849-13.299878 29.799726-29.699728 29.799726zM914.996301 413.505604c-16.399849 0-29.799726-13.299878-29.799727-29.799726V75.908703c0-9.199916-6.399941-13.299878-9.199915-14.699865-2.799974-1.299988-9.999908-3.799965-17.199842 1.899983L714.698139 177.007775c-12.899882 10.199906-31.59971 7.999927-41.799616-4.899955-10.199906-12.899882-7.999927-31.59971 4.899955-41.799616L821.997154 16.409249c22.999789-18.199833 53.699507-21.499803 80.099265-8.69992 26.399758 12.799883 42.799607 38.899643 42.799607 68.199374v307.797175c-0.099999 16.399849-13.399877 29.799726-29.899725 29.799726z" fill="#383F51" p-id="4396"></path><path d="M512 1024c-257.697634 0-467.395709-209.698075-467.395709-467.395709S254.302366 89.30858 512 89.30858 979.395709 299.006655 979.395709 556.70429 769.697634 1024 512 1024z m0-875.191966c-224.897936 0-407.796257 182.99832-407.796257 407.796257s182.99832 407.796257 407.796257 407.796256 407.796257-182.99832 407.796257-407.796256S736.897936 148.808034 512 148.808034z" fill="#383F51" p-id="4397"></path><path d="M109.003699 413.705602c-16.399849 0-29.799726-13.299878-29.799726-29.799726v-307.997173c0-29.299731 16.399849-55.499491 42.799607-68.199374 26.399758-12.799883 56.999477-9.399914 80.099265 8.69992l144.198676 113.798956c12.899882 10.199906 15.099861 28.899735 4.899955 41.799616-10.199906 12.899882-28.899735 15.099861-41.799616 4.899955L165.103184 63.108821c-7.199934-5.699948-14.399868-3.199971-17.199842-1.899983-2.799974 1.299988-9.199916 5.49995-9.199915 14.699865v307.997173c0 16.499849-13.299878 29.799726-29.699728 29.799726zM512 790.302145c-57.299474 0-111.498976-28.199741-144.998669-75.399308-17.699838-24.899771-46.199576-39.699636-76.1993-39.699635H97.403806c-8.199925 0-14.899863-6.699938-14.899863-14.899863s6.699938-14.899863 14.899863-14.899864h193.298225c39.699636 0 77.199291 19.499821 100.499078 52.29952 27.999743 39.399638 73.099329 62.899423 120.798891 62.899423s92.799148-23.499784 120.798891-62.899423c23.199787-32.6997 60.799442-52.29952 100.499078-52.29952h193.298225c8.199925 0 14.899863 6.699938 14.899863 14.899864s-6.699938 14.899863-14.899863 14.899863H733.297969c-30.099724 0-58.599462 14.799864-76.199301 39.699635-33.599692 47.199567-87.799194 75.399308-145.098668 75.399308z" fill="#383F51" p-id="4398"></path><path d="M512 752.402493m-69.099366 0a69.099366 69.099366 0 1 0 138.198732 0 69.099366 69.099366 0 1 0-138.198732 0Z" fill="#383F51" p-id="4399"></path><path d="M340.701572 476.00503m-34.499683 0a34.499683 34.499683 0 1 0 68.999367 0 34.499683 34.499683 0 1 0-68.999367 0Z" fill="#383F51" p-id="4400"></path><path d="M694.798322 476.00503m-34.499683 0a34.499683 34.499683 0 1 0 68.999366 0 34.499683 34.499683 0 1 0-68.999366 0Z" fill="#383F51" p-id="4401"></path></svg>