<?xml version="1.0" standalone="no"?><!DOCTYPE svg PUBLIC "-//W3C//DTD SVG 1.1//EN" "http://www.w3.org/Graphics/SVG/1.1/DTD/svg11.dtd"><svg t="1730432462342" class="icon" viewBox="0 0 1024 1024" version="1.1" xmlns="http://www.w3.org/2000/svg" p-id="3256" xmlns:xlink="http://www.w3.org/1999/xlink" width="200" height="200"><path d="M868.6 713.1c71.1-2.4 128-60.8 128-132.5 0-73.2-59.3-132.6-132.6-132.6-15.3 0-29.9 2.6-43.5 7.4" fill="#DDB172" p-id="3257"></path><path d="M868.6 713.1c71.1-2.4 128-60.8 128-132.5 0-73.2-59.3-132.6-132.6-132.6-15.3 0-29.9 2.6-43.5 7.4l5.6 129.7 42.5 128z" fill="#D1C17D" p-id="3258"></path><path d="M886.4 450c30.1 24.3 49.4 61.5 49.4 103.2 0 54.5-32.9 101.2-79.9 121.6l12.7 38.2c71.1-2.4 128-60.8 128-132.5 0-65.5-47.7-119.8-110.2-130.5z" fill="#C6B56B" p-id="3259"></path><path d="M203.4 455.3c-13.6-4.8-28.3-7.3-43.4-7.3-73.2 0-132.6 59.3-132.6 132.6 0 71.7 56.9 130.1 128 132.5L195.2 576l8.2-120.7z" fill="#D1C17D" p-id="3260"></path><path d="M58.1 617.2c0-73.2 59.3-132.6 132.6-132.6 3.4 0 6.8 0.2 10.1 0.4l2.6-38.8c-13.6-4.8-28.3-7.3-43.4-7.3-73.2 0-132.6 59.3-132.6 132.6 0 37.2 15.4 70.8 40.1 94.9-6-15.2-9.4-31.8-9.4-49.2z" fill="#FFF3C2" p-id="3261"></path><path d="M808.8 586.5c9.1-29.3 14.1-60.4 14.1-92.7 0-154.7-113-283-260.9-306.9-16.3-2.6-115.2-104.6-132.2-104.6-17.3 0 5.9 109.8-6.5 113.4-128.4 38.2-222 157.2-222 298 0 32.3 4.9 63.4 14.1 92.7-37.8 36.3-59.8 79.8-59.8 126.7 0 126.2 159.6 228.6 356.6 228.6s356.6-102.3 356.6-228.6c-0.2-46.8-22.3-90.4-60-126.6z" fill="#E2D28D" p-id="3262"></path><path d="M204.4 777.1c0-44.1-8.1-102.3 44.1-154.7 6.9-6.9 10.8-16.2 10.5-25.9-0.4-19.5-1.7-19.9-1.5-46.4 1.6-193.6 92.6-283.4 221-321.6 12.4-3.7-9.7-89.8 7.5-89.8 17 0 122.5 87.2 138.8 89.8 52.1 8.4 93.3 44.5 133.3 75.4-47.1-61.1-116.5-104.2-196.2-117.1-16.3-2.6-115.2-104.6-132.2-104.6-17.3 0 5.9 109.8-6.5 113.4-128.4 38.2-222 157.2-222 298 0 32.3 4.9 63.4 14.1 92.7-37.8 36.3-59.8 79.8-59.8 126.7 0 57.5 33.2 109.9 87.8 150.1-20.2-28.4-38.9-52.6-38.9-86z" fill="#FFF3C2" p-id="3263"></path><path d="M482.9 159.4c21.7 3.5 42.7 9.3 62.6 17.1-33.5-26.4-101.9-94.2-115.8-94.2-5.8 0-7 12.6-6.6 29.3 26.8 23.9 52.2 46.6 59.8 47.8zM808.8 586.5c9.1-29.3 14.1-60.4 14.1-92.7 0-150.6-107.1-276.1-249.3-304.7 101 51.3 170.2 156.2 170.2 277.3 0 32.3-4.9 63.4-14.1 92.7 37.8 36.3 59.8 79.8 59.8 126.7 0 126.2-159.6 228.6-356.6 228.6-45.4 0-88.7-5.5-128.6-15.4 58.5 26.9 130.1 42.8 207.6 42.8 196.9 0 356.6-102.3 356.6-228.6 0.1-46.9-22-90.5-59.7-126.7z" fill="#C6B87B" p-id="3264"></path><path d="M512 969.1c-211.7 0-384-114.8-384-256 0-48.1 19.5-94.3 56.5-134.5-7.1-27.6-10.8-56.1-10.8-84.9 0-143 92.1-271.9 225.8-319.1-0.3-8.5-1.1-19.9-1.8-28.5-3.3-43.4-4.4-66.7 9-81.1 6-6.5 14.2-10.1 23-10.1 17.6 0 33.7 12.7 89.9 63 16.6 14.8 41.1 36.7 50.1 42.5C732.5 188.3 850.3 328 850.3 493.8c0 28.8-3.6 57.3-10.8 84.9 37 40.2 56.5 86.4 56.5 134.5 0 141.1-172.3 255.9-384 255.9zM451.7 131c0.3 3.9 0.6 7.7 0.8 10.9 3.3 43.4 5.5 72.1-21.5 80.1-119.2 35.5-202.4 147.2-202.4 271.7 0 28.8 4.3 57.3 12.8 84.6 3.1 9.9 0.3 20.8-7.2 28-33.6 32.3-51.4 69.3-51.4 106.9 0 110.9 147.7 201.1 329.1 201.1S841 824.1 841 713.2c0-37.7-17.8-74.6-51.4-106.9-7.5-7.2-10.3-18-7.2-28 8.5-27.3 12.8-55.7 12.8-84.6 0-139.9-100-257.5-237.9-279.8-14-2.3-27.5-13.2-74.5-55.2-8.6-7.9-20.3-18.3-31.1-27.7z m-29.1-22.6z" fill="#383F51" p-id="3265"></path><path d="M869.5 740.5l-1.8-54.8c56.9-1.9 101.5-48.1 101.5-105.1 0-58-47.2-105.1-105.1-105.1-11.9 0-23.5 2-34.3 5.8l-18.4-51.7c16.8-6 34.5-9 52.7-9 88.2 0 160 71.8 160 160-0.1 86.7-68 157-154.6 159.9z" fill="#383F51" p-id="3266"></path><path d="M869.5 740.5l-1.8-54.8c56.9-1.9 101.5-48.1 101.5-105.1 0-58-47.2-105.1-105.1-105.1-11.9 0-23.5 2-34.3 5.8l-18.4-51.7c16.8-6 34.5-9 52.7-9 88.2 0 160 71.8 160 160-0.1 86.7-68 157-154.6 159.9zM154.5 740.5C67.9 737.6 0 667.3 0 580.6c0-88.2 71.8-160 160-160 18 0 35.6 3 52.5 8.8l-18.1 51.8c-11-3.8-22.6-5.8-34.4-5.8-58 0-105.1 47.2-105.1 105.1 0 57 44.6 103.2 101.5 105.1l-1.9 54.9z" fill="#383F51" p-id="3267"></path><path d="M384 484.6m-54.9 0a54.9 54.9 0 1 0 109.8 0 54.9 54.9 0 1 0-109.8 0Z" fill="#383F51" p-id="3268"></path><path d="M630.9 484.6m-54.9 0a54.9 54.9 0 1 0 109.8 0 54.9 54.9 0 1 0-109.8 0Z" fill="#383F51" p-id="3269"></path><path d="M521.1 813.7c-85.7 0-155.4-69.7-155.4-155.4 0-15.1 12.3-27.4 27.4-27.4 15.1 0 27.4 12.3 27.4 27.4 0 55.5 45.1 100.6 100.6 100.6 55.5 0 100.6-45.1 100.6-100.6 0-15.1 12.3-27.4 27.4-27.4 15.1 0 27.4 12.3 27.4 27.4 0.1 85.7-69.7 155.4-155.4 155.4z" fill="#383F51" p-id="3270"></path></svg>