<?xml version="1.0" standalone="no"?><!DOCTYPE svg PUBLIC "-//W3C//DTD SVG 1.1//EN" "http://www.w3.org/Graphics/SVG/1.1/DTD/svg11.dtd"><svg t="1730432454580" class="icon" viewBox="0 0 1024 1024" version="1.1" xmlns="http://www.w3.org/2000/svg" p-id="2683" xmlns:xlink="http://www.w3.org/1999/xlink" width="200" height="200"><path d="M421.8 195.8c-116.8 33-207.4 128.4-233.4 248C98.8 424.7 31.7 345 31.7 249.6c0-41.2 12.6-79.4 33.9-111.1 16.7-24.8 38.9-45.6 64.8-60.7 29.4-17.1 63.5-27 100-27 91.3 0.1 167.9 61.4 191.4 145z" fill="#A8D5DD" p-id="2684"></path><path d="M79.2 340c-7.2-40.6-1.5-80.4 13.9-115.3 12.1-27.4 30.3-51.7 53.2-71.1 25.9-22 57.8-37.7 93.7-44.1 61.8-11 121.8 7.8 165.6 46C367 79.5 282.2 34.2 193.8 50c-35.9 6.4-67.8 22-93.7 44-22.8 19.4-41.1 43.7-53.2 71.1-15.5 35-21.2 74.7-13.9 115.3 8.2 46.4 32 86 64.9 114.8-8.7-17-15.2-35.5-18.7-55.2z" fill="#D7F6F9" p-id="2685"></path><path d="M212.7 481.4l-30.9-6.6C76.4 452.3 0 357.6 0 249.6c0-46.1 13.6-90.6 39.3-128.8 19.2-28.5 45.2-52.9 75.1-70.3 35.1-20.5 75.2-31.3 116-31.3 102.9 0 194.1 69.1 221.9 168.1l8.6 30.5-30.5 8.6c-106.6 30.1-187.5 116-211 224.2l-6.7 30.8z m17.7-398.8c-29.6 0-58.6 7.8-84 22.6-21.7 12.7-40.6 30.3-54.4 51-18.7 27.7-28.5 60-28.5 93.4 0 68 41.8 128.8 102.8 154.2 33.3-104.5 111.9-188 214.2-227.6-27.7-56.3-85.7-93.6-150.1-93.6z" fill="#383F51" p-id="2686"></path><path d="M390.1 195.9v-0.1h63.4z" fill="#383F51" p-id="2687"></path><path d="M992.3 249.6c0 95.3-67.1 175.1-156.7 194.2-26-119.6-116.6-215.1-233.4-248 23.5-83.6 100.1-144.9 191.3-144.9 109.8 0 198.8 88.9 198.8 198.7z" fill="#A8D5DD" p-id="2688"></path><path d="M793.6 50.9c-16 0-31.6 2-46.5 5.6 87.5 20.8 152.7 99.2 152.7 193.2 0 63.1-29.5 119.1-75.2 155.5 4.4 12.6 8.2 25.5 11.1 38.7 89.5-19.1 156.7-98.8 156.7-194.2-0.1-109.9-89.1-198.8-198.8-198.8z" fill="#A5BCC4" p-id="2689"></path><path d="M811.4 481.4l-6.7-30.9c-23.6-108.3-104.4-194.2-211-224.2l-30.5-8.6 8.6-30.5c27.8-99 119-168.1 221.9-168.1 127.1 0 230.4 103.4 230.4 230.4 0 108-76.4 202.7-181.7 225.2l-31 6.7zM643.5 176.2c102.3 39.5 180.9 123.1 214.2 227.6 61-25.4 102.8-86.2 102.8-154.2 0-92.1-74.9-167-167-167-64.3 0-122.3 37.3-150 93.6z" fill="#383F51" p-id="2690"></path><path d="M570.5 195.9v-0.1h63.4z" fill="#383F51" p-id="2691"></path><path d="M843.2 514.5c0 143-202.5 356-290.8 442.1-13 12.7-30.5 18.1-47.3 16.1-12.3-1.5-24.1-6.8-33.6-16.1-88.3-86-290.8-299-290.8-442.1 0-24.3 2.6-48 7.6-70.7 26-119.6 116.6-215 233.4-248 28.6-8.1 59-12.5 90.3-12.5s61.5 4.3 90.2 12.5c116.8 32.9 207.4 128.4 233.4 248 5 22.7 7.6 46.4 7.6 70.7z" fill="#C7E8EF" p-id="2692"></path><path d="M257.4 591.2c0-24.3 2.6-48 7.6-70.7 26-119.6 116.6-215 233.4-248 28.6-8.1 59-12.5 90.3-12.5s61.5 4.3 90.2 12.5c37.3 10.5 71.9 27.4 102.6 49.4-43.2-60.3-106-105.5-179.2-126.1-28.6-8.1-58.9-12.5-90.2-12.5s-61.6 4.3-90.3 12.5c-116.8 33-207.4 128.4-233.4 248-5 22.7-7.6 46.4-7.6 70.7 0 143 202.5 356 290.8 442.1 2.5 2.4 5.1 4.6 7.9 6.4C383 859.8 257.4 703.8 257.4 591.2z" fill="#D7F6F9" p-id="2693"></path><path d="M835.6 443.8c-17.7-81.4-65.4-151.6-130.8-198.5 25.7 35.9 44.5 77.2 54.2 121.9 5 22.7 7.6 46.4 7.6 70.7 0 143-202.5 356-290.8 442.1-13 12.7-30.5 18.1-47.3 16.1-9.1-1.1-17.9-4.3-25.7-9.6 26 27.8 49.9 51.9 68.7 70.2 9.5 9.3 21.4 14.6 33.6 16.1 16.7 2 34.2-3.4 47.3-16.1 88.3-86 290.8-299 290.8-442.1 0-24.4-2.6-48.1-7.6-70.8z" fill="#A5BCC4" p-id="2694"></path><path d="M512.2 1004.8c-3.6 0-7.2-0.2-10.8-0.6-19.8-2.4-37.8-11-52-24.9C337.2 870 149.1 664.1 149.1 514.5c0-26.1 2.8-52.2 8.3-77.5 28.5-131.1 126.5-235.2 255.8-271.7 63.7-18.1 133.8-18.1 197.7 0C740 201.7 838.1 305.8 866.6 437.1c5.5 25.3 8.3 51.4 8.3 77.5 0 149.6-188.2 355.4-300.4 464.8-16.8 16.4-39.1 25.4-62.3 25.4z m-0.1-789.7c-27.9 0-55.3 3.8-81.6 11.3-106.7 30.1-187.5 116-211.1 224.2-4.6 20.9-6.9 42.4-6.9 64 0 90.9 105.1 247.7 281.2 419.4 5.3 5.1 11.2 6.8 15.3 7.3 7.9 0.9 15.6-1.7 21.3-7.3 176.1-171.7 281.2-328.5 281.2-419.4 0-21.5-2.3-43.1-6.9-64-23.6-108.3-104.4-194.2-211-224.2-26.3-7.5-53.8-11.3-81.5-11.3z" fill="#383F51" p-id="2695"></path><path d="M387.8 514.6m-41.4 0a41.4 41.4 0 1 0 82.8 0 41.4 41.4 0 1 0-82.8 0Z" fill="#4B5063" p-id="2696"></path><path d="M636.2 514.6m-41.4 0a41.4 41.4 0 1 0 82.8 0 41.4 41.4 0 1 0-82.8 0Z" fill="#4B5063" p-id="2697"></path><path d="M514.6 979.1h-0.1c-14.6-0.1-26.4-11.9-26.3-26.5l0.8-190.3c0.1-14.6 11.6-26.2 26.5-26.3 14.6 0.1 26.4 11.9 26.3 26.5l-0.8 190.3c0 14.6-11.9 26.3-26.4 26.3z" fill="#383F51" p-id="2698"></path><path d="M573.2 788.9H456.9c-14.6 0-26.4-11.8-26.4-26.4s11.8-26.4 26.4-26.4h116.3c14.6 0 26.4 11.8 26.4 26.4s-11.8 26.4-26.4 26.4z" fill="#383F51" p-id="2699"></path></svg>