<?xml version="1.0" standalone="no"?><!DOCTYPE svg PUBLIC "-//W3C//DTD SVG 1.1//EN" "http://www.w3.org/Graphics/SVG/1.1/DTD/svg11.dtd"><svg t="1730432499084" class="icon" viewBox="0 0 1024 1024" version="1.1" xmlns="http://www.w3.org/2000/svg" p-id="4200" xmlns:xlink="http://www.w3.org/1999/xlink" width="200" height="200"><path d="M857.74789 674.6c0 140.3-150.8 254.1-336.9 254.1-186 0-336.8-113.8-336.8-254.1 0-59 26.6-113.1 71.2-156.3 7.6-140.2 123.6-251.5 265.5-251.5 142.1 0 258 111.3 265.5 251.5 44.8 43.2 71.5 97.4 71.5 156.3z" fill="#EDE9FF" p-id="4201"></path><path d="M805.14789 622.1c0 140.3-150.8 254.1-336.9 254.1-94.1 0-179.2-29.2-240.3-76.2 57.9 76.8 167.4 128.7 292.9 128.7 186.1 0 336.9-113.8 336.9-254.1 0-59-26.7-113.1-71.3-156.3" fill="#D6D3ED" p-id="4202"></path><path d="M649.34789 268.1s214-247.4 321.5-154.3-178.3 312-178.3 312M388.34789 281.8S157.04789 17 48.94789 109.6 245.64789 440 245.64789 440" fill="#EFAFC1" p-id="4203"></path><path d="M94.64789 155.2c73-62.6 202.4 38.2 278.5 110C320.04789 208.8 140.44789 31.3 48.94789 109.6-22.65211 170.9 86.94789 296 169.04789 373.4 99.14789 298.8 35.94789 205.5 94.64789 155.2z" fill="#FFE1EA" p-id="4204"></path><path d="M811.94789 389.4l-4.7-11.5C787.34789 329.5 749.54789 289.8 701.04789 266l-13.3-6.5s4.2-4.6 11.5-12c-29.9 26.6-49.8 48.4-49.8 48.4l124.2 129.8s52.1-37.9 99.6-86.4c-33.6 29.8-61.3 50.1-61.3 50.1z" fill="#D69AAD" p-id="4205"></path><path d="M246.04789 736.6c0-59 26.6-113.1 71.2-156.3 7.6-140.2 123.6-251.5 265.5-251.5 57.6 0 110.9 18.3 154.4 49.4-48.1-67.4-127-111.3-216.3-111.3-142 0-257.9 111.3-265.5 251.5-44.7 43.2-71.2 97.3-71.2 156.3 0 71.3 39.1 135.8 101.9 182-25.6-35.9-40-76.7-40-120.1z" fill="#F4F3FF" p-id="4206"></path><path d="M517.94789 960c-201.7 0-365.8-127-365.8-283.1 0-61.9 24.9-120.1 72.1-169.1 14-151 140.9-267.6 293.7-267.6 152.9 0 279.8 116.6 293.7 267.6 47.3 49.1 72.2 107.3 72.2 169.1C883.84789 833 719.64789 960 517.94789 960z m0-661.8c-125.8 0-229.7 98.4-236.6 224l-0.6 11.4-8.2 7.9c-40.8 39.4-62.4 86.3-62.4 135.4 0 124.1 138 225.1 307.8 225.1s307.9-101 307.9-225.1c0-49.1-21.6-95.9-62.5-135.4l-8.2-7.9-0.6-11.4c-6.8-125.6-110.7-224-236.6-224z" fill="#383F51" p-id="4207"></path><path d="M399.74789 511.5m-29.5 0a29.5 29.5 0 1 0 59 0 29.5 29.5 0 1 0-59 0Z" fill="#4B5063" p-id="4208"></path><path d="M624.34789 511.5m-29.5 0a29.5 29.5 0 1 0 59 0 29.5 29.5 0 1 0-59 0Z" fill="#4B5063" p-id="4209"></path><path d="M452.94789 791.9c-40.6 0-73.6-41-73.6-91.3 0-8 6.5-14.5 14.5-14.5s14.5 6.5 14.5 14.5c0 33.8 20.4 62.3 44.6 62.3 24.2 0 44.6-28.5 44.6-62.3 0-8 6.5-14.5 14.5-14.5s14.5 6.5 14.5 14.5c0 50.3-33 91.3-73.6 91.3z" fill="#383F51" p-id="4210"></path><path d="M577.04789 791.9c-43.8 0-79.5-41-79.5-91.3 0-8 6.5-14.5 14.5-14.5s14.5 6.5 14.5 14.5c0 34.4 22.7 62.3 50.5 62.3s50.5-28 50.5-62.3c0-8 6.5-14.5 14.5-14.5s14.5 6.5 14.5 14.5c0 50.3-35.7 91.3-79.5 91.3zM792.64789 454.8c-8.7 0-17.3-3.9-23-11.4-9.7-12.7-7.3-30.9 5.4-40.7 72.7-55.8 189-169 191-235 0.4-13.3-4-23.2-14.1-32-69.7-60.4-229.9 92.9-280.6 151.4-10.5 12.1-28.8 13.4-40.9 2.9-12.1-10.5-13.4-28.8-3-40.9 2.3-2.6 56.3-64.8 125-116.3 126.1-94.6 198.7-74.5 237.4-41 23.3 20.1 35.1 47 34.1 77.6-3.4 115-192.2 262.9-213.8 279.4-5.2 4-11.4 6-17.5 6zM231.44789 454.8c-6.2 0-12.4-1.9-17.6-6C192.34789 432.3 3.54789 284.4 0.04789 169.4c-0.9-30.6 10.9-57.4 34.1-77.6 38.7-33.5 111.3-53.6 237.4 41 68.6 51.5 122.7 113.7 125 116.3 10.5 12.1 9.1 30.4-3 40.9s-30.4 9.2-40.9-2.9C302.14789 228.7 141.94789 75.4 72.24789 135.7c-10.2 8.8-14.5 18.7-14.1 32 2 66.1 118.2 179.3 191.1 235.1 12.7 9.7 15.1 27.9 5.4 40.7-5.8 7.4-14.5 11.3-23.2 11.3z" fill="#383F51" p-id="4211"></path><path d="M728.14789 363.1c-3.7 0-7.4-1.4-10.3-4.2-5.7-5.7-5.7-14.8 0-20.5l114.8-114.8c5.7-5.7 14.8-5.7 20.5 0 5.7 5.7 5.7 14.8 0 20.5L738.34789 358.8c-2.8 2.9-6.5 4.3-10.2 4.3zM322.94789 366.4c-3.3 0-6.6-1.1-9.4-3.4L159.94789 233c-6.1-5.2-6.9-14.3-1.7-20.4 5.2-6.1 14.3-6.9 20.4-1.7l153.6 130c6.1 5.2 6.9 14.3 1.7 20.4-2.8 3.4-6.9 5.1-11 5.1z" fill="#383F51" p-id="4212"></path></svg>